<svg xmlns="http://www.w3.org/2000/svg" xmlns:xlink="http://www.w3.org/1999/xlink" width="500" zoomAndPan="magnify" viewBox="0 0 375 374.999991" height="500" preserveAspectRatio="xMidYMid meet" version="1.0"><defs><clipPath id="id1"><path d="M 12 18 L 363 18 L 363 367.78125 L 12 367.78125 Z M 12 18 " clip-rule="nonzero"/></clipPath></defs><g clip-path="url(#id1)"><path fill="rgb(27.449036%, 76.469421%, 83.918762%)" d="M 352.097656 193.382812 C 352.097656 168.238281 346.417969 144.390625 336.222656 123.0625 C 332.269531 114.734375 327.625 106.777344 322.339844 99.265625 C 311.351562 83.613281 297.6875 69.953125 282.027344 58.941406 C 287.835938 55.757812 293.171875 53.164062 298.054688 51.011719 C 320.5625 41.011719 333.273438 40.90625 336.828125 44.457031 C 340.382812 48.035156 340.277344 60.714844 330.300781 83.210938 C 335.949219 90.503906 341.070312 98.253906 345.585938 106.394531 C 361.03125 76.742188 370.777344 44.640625 353.707031 27.585938 C 336.644531 10.535156 304.503906 20.265625 274.828125 35.730469 C 269.152344 38.675781 263.578125 41.832031 258.21875 45.066406 C 236.878906 34.878906 213.019531 29.203125 187.859375 29.203125 C 162.691406 29.203125 138.832031 34.90625 117.492188 45.0625 C 84.023438 24.96875 42.316406 7.261719 21.980469 27.585938 C 1.65625 47.902344 19.363281 89.582031 39.464844 123.0625 C 29.308594 144.390625 23.601562 168.230469 23.601562 193.375 C 23.601562 218.523438 29.277344 242.371094 39.472656 263.699219 C 36.238281 269.085938 33.050781 274.65625 30.101562 280.355469 C 14.65625 310.011719 4.914062 342.113281 21.980469 359.167969 C 28.351562 365.53125 36.792969 368.160156 46.453125 368.160156 C 62.671875 368.160156 82.257812 360.707031 100.859375 351.023438 C 106.539062 348.078125 112.109375 344.917969 117.472656 341.683594 C 138.8125 351.867188 162.671875 357.550781 187.859375 357.550781 C 213.019531 357.550781 236.871094 351.847656 258.210938 341.691406 C 281.210938 355.488281 308.078125 368.160156 329.238281 368.160156 C 338.898438 368.160156 347.359375 365.539062 353.707031 359.167969 C 374.035156 338.851562 356.324219 297.171875 336.222656 263.691406 C 346.390625 242.371094 352.097656 218.53125 352.097656 193.382812 Z M 233.914062 60.835938 C 228.554688 64.546875 223.136719 68.472656 217.648438 72.613281 C 205.28125 81.867188 192.621094 92.085938 180.042969 102.984375 C 165.578125 115.503906 151.195312 128.925781 137.285156 142.828125 C 126.746094 153.363281 116.453125 164.1875 106.601562 175.164062 C 103.125 170.972656 99.726562 166.808594 96.433594 162.667969 C 85.382812 148.722656 75.449219 135.023438 67.039062 122.089844 C 91.503906 80.828125 136.492188 53.085938 187.867188 53.085938 C 204 53.09375 219.5 55.820312 233.914062 60.835938 Z M 47.496094 193.382812 C 47.496094 177.28125 50.257812 161.824219 55.277344 147.40625 C 62.847656 158.300781 71.296875 169.558594 80.429688 180.914062 C 83.769531 185.050781 87.199219 189.21875 90.703125 193.382812 C 82.316406 203.355469 74.351562 213.332031 67.027344 223.121094 C 62.886719 228.613281 58.957031 234.050781 55.242188 239.410156 C 50.230469 224.980469 47.496094 209.488281 47.496094 193.382812 Z M 38.867188 44.46875 C 43.210938 40.132812 61.121094 41.285156 93.710938 58.984375 C 78.042969 69.984375 64.386719 83.632812 53.382812 99.292969 C 35.679688 66.714844 34.527344 48.832031 38.867188 44.46875 Z M 77.671875 335.75 C 55.136719 345.75 42.449219 345.882812 38.867188 342.304688 C 35.316406 338.722656 35.421875 326.015625 45.398438 303.550781 C 47.570312 298.667969 50.203125 293.3125 53.363281 287.503906 C 64.351562 303.175781 78.015625 316.839844 93.707031 327.824219 C 87.886719 330.976562 82.554688 333.605469 77.671875 335.75 Z M 67.027344 264.691406 C 70.15625 259.859375 73.5 254.957031 77.03125 249.941406 C 85.816406 237.53125 95.765625 224.613281 106.59375 211.609375 C 109.488281 208.136719 112.433594 204.683594 115.433594 201.210938 C 117.710938 198.585938 120 195.984375 122.335938 193.382812 C 132.527344 181.949219 143.195312 170.648438 154.15625 159.691406 C 167.664062 146.191406 181.652344 133.167969 195.691406 121.015625 C 212.144531 106.769531 228.652344 93.746094 244.417969 82.605469 C 249.4375 79.074219 254.347656 75.734375 259.175781 72.605469 C 300.472656 97.042969 328.210938 142.027344 328.210938 193.382812 C 328.210938 244.710938 300.472656 289.675781 259.203125 314.132812 C 239.199219 301.136719 217.386719 284.535156 195.691406 265.746094 C 181.652344 253.59375 167.6875 240.597656 154.15625 227.066406 C 146.996094 219.910156 139.957031 212.609375 133.113281 205.210938 C 131.199219 207.335938 129.320312 209.480469 127.457031 211.632812 C 124.03125 215.585938 120.714844 219.507812 117.453125 223.460938 C 123.925781 230.386719 130.558594 237.230469 137.277344 243.9375 C 151.210938 257.863281 165.597656 271.257812 180.035156 283.78125 C 198.203125 299.507812 216.496094 313.796875 233.886719 325.890625 C 219.457031 330.910156 203.976562 333.683594 187.859375 333.683594 C 136.484375 333.683594 91.476562 305.960938 67.027344 264.691406 Z M 336.835938 342.304688 C 332.496094 346.640625 314.582031 345.488281 281.992188 327.789062 C 297.660156 316.789062 311.316406 303.140625 322.3125 287.480469 C 340.023438 320.054688 341.175781 337.945312 336.835938 342.304688 Z M 336.835938 342.304688 " fill-opacity="1" fill-rule="nonzero"/></g></svg>